<svg xmlns="http://www.w3.org/2000/svg" xmlns:xlink="http://www.w3.org/1999/xlink" width="19" height="33" viewBox="0 0 32 48">
  <defs>
    <clipPath id="clip-path">
      <path id="Path_1" data-name="Path 1" d="M0,0H32V48H0Z" fill="#e63737" stroke="#707070" stroke-width="1"/>
    </clipPath>
  </defs>
  <g id="Symbol_1_1" data-name="Symbol 1 – 1" transform="translate(-461 -53)">
    <g id="Mask_Group_1" data-name="Mask Group 1" transform="translate(461 53)" clip-path="url(#clip-path)">
      <g id="bin" transform="translate(0 7.9)">
        <g id="Group_1" data-name="Group 1">
          <path id="Path_3" data-name="Path 3" d="M98.721,153.492a1.98,1.98,0,0,0,2.159,1.553h20.171a1.98,1.98,0,0,0,2.159-1.553l1.44-22.807H97.281Zm16.807-17.142c0-.363.393-.658.878-.658h1.4c.484,0,.878.295.878.658v13.03c0,.363-.393.658-.878.658h-1.4c-.485,0-.878-.295-.878-.658Zm-6.142,0c0-.363.393-.658.878-.658h1.4c.484,0,.878.295.878.658v13.03c0,.363-.393.658-.878.658h-1.4c-.485,0-.878-.295-.878-.658V136.35Zm-6.143,0c0-.363.393-.658.878-.658h1.4c.485,0,.878.295.878.658v13.03c0,.363-.393.658-.878.658h-1.4c-.485,0-.878-.295-.878-.658Z" transform="translate(-94.965 -122.844)" fill="#e63737"/>
          <path id="Path_4" data-name="Path 4" d="M98.985,1.659H89.679V.339c0-.187-.2-.339-.452-.339H79.455C79.2,0,79,.152,79,.339V1.659H69.7c-.749,0-1.356.455-1.356,1.017V5.871h32V2.676C100.341,2.114,99.734,1.659,98.985,1.659Z" transform="translate(-68.341)" fill="#e63737"/>
        </g>
      </g>
    </g>
  </g>
</svg>
